<mxfile host="app.diagrams.net" modified="2023-05-22T02:08:41.270Z" agent="Mozilla/5.0 (Macintosh; Intel Mac OS X 10_15_7) AppleWebKit/537.36 (KHTML, like Gecko) Chrome/112.0.0.0 Safari/537.36" version="21.1.5" etag="MmZXWMJ0haH00DZx5yF9" type="github">
  <diagram name="第 1 页" id="-qSrX31KmC8fcV6rgU36">
    <mxGraphModel>
      <root>
        <mxCell id="0" />
        <mxCell id="1" parent="0" />
      </root>
    </mxGraphModel>
  </diagram>
</mxfile>
